<svg xmlns="http://www.w3.org/2000/svg" viewBox="0 0 239 210">
  <path d="M0 0 C4.54428436 3.91601418 8.66696811 8.00045217 12 13 C12.125 15.6875 12.125 15.6875 12 18 C12.94359375 16.28103516 12.94359375 16.28103516 13.90625 14.52734375 C24.95301125 -5.19188467 24.95301125 -5.19188467 35.67578125 -8.5625 C44.61931038 -10.24598784 53.07257991 -9.60170447 61 -5 C68.61625504 0.29651539 73.66031641 6.87343572 75.37890625 16.015625 C76.12731171 25.12387872 71.2747932 32.34168322 67 40 C66.23598877 41.38445312 66.23598877 41.38445312 65.45654297 42.796875 C61.94537804 49.15546464 58.3876302 55.48680843 54.80810547 61.80712891 C53.07775321 64.8626983 51.35245415 67.92105721 49.62890625 70.98046875 C46.96267349 75.71072795 44.28861875 80.4364903 41.60986328 85.15966797 C40.50532097 87.10844644 39.4022049 89.05803378 38.30029297 91.00830078 C36.64087579 93.94484862 34.97720333 96.87894637 33.3125 99.8125 C32.80702637 100.7087207 32.30155273 101.60494141 31.78076172 102.52832031 C31.31299316 103.35041992 30.84522461 104.17251953 30.36328125 105.01953125 C29.95376221 105.74245361 29.54424316 106.46537598 29.12231445 107.21020508 C28 109 28 109 26 111 C21.09708327 110.70010418 17.14683244 108.83964201 12.8515625 106.62109375 C12.19417084 106.28956802 11.53677917 105.9580423 10.85946655 105.61647034 C8.77740601 104.56431765 6.70121523 103.50113288 4.625 102.4375 C3.20740544 101.71866264 1.78944012 101.00055593 0.37109375 100.28320312 C-3.09028407 98.53055935 -6.54644472 96.76800466 -10 95 C-10.33 95.33 -10.66 95.66 -11 96 C-10.57885658 98.30303605 -10.08741324 100.59337713 -9.5625 102.875 C-8 109.69955157 -8 109.69955157 -8 113 C-7.05898437 112.566875 -6.11796875 112.13375 -5.1484375 111.6875 C-3.89088581 111.12441716 -2.63305847 110.56194966 -1.375 110 C-0.75753906 109.71382813 -0.14007813 109.42765625 0.49609375 109.1328125 C4.48237281 107.37045755 7.64692715 106.48937562 12 107 C14 109 14 109 14.125 112.125 C14.08375 113.07375 14.0425 114.0225 14 115 C11.10660234 116.21303957 8.21138206 117.42120271 5.3125 118.62109375 C3.26464391 119.47356215 1.22179089 120.33830479 -0.8125 121.22265625 C-9.53839869 124.93382353 -9.53839869 124.93382353 -14 124 C-18.6504498 119.92278273 -22.08397706 114.99550108 -25.6875 110 C-26.94298767 108.27789974 -28.19950057 106.55654646 -29.45703125 104.8359375 C-30.06627441 104.0015918 -30.67551758 103.16724609 -31.30322266 102.30761719 C-34.63468406 97.77682968 -38.09164022 93.34475753 -41.53466797 88.8984375 C-46.75551435 82.13447525 -51.92755251 75.33301219 -57.08740234 68.52246094 C-58.2987552 66.92484826 -59.51234676 65.32892848 -60.72900391 63.73535156 C-70.20862184 51.30183502 -76.40410151 41.15705535 -75 25 C-72.17100445 12.9565618 -65.46442409 3.56170855 -55 -3 C-36.46197012 -11.68700702 -17.44416277 -11.16611747 0 0 Z M33 4 C33 4.99 33 5.98 33 7 C37.07105506 9.14406112 41.14619585 11.2800636 45.2253418 13.40869141 C46.61256441 14.13402596 47.99864269 14.86155344 49.38354492 15.59130859 C51.3738233 16.63957417 53.36807716 17.67989707 55.36328125 18.71875 C56.29156487 19.21091003 56.29156487 19.21091003 57.23860168 19.7130127 C60.04595154 21.16565714 61.78876029 22 65 22 C65.49700492 16.035941 64.38479516 11.97272375 61 7 C56.51939005 2.01595073 51.68189881 0.25953859 45.125 -0.375 C40.47397748 -0.28521192 36.92865957 1.65952196 33 4 Z M-57.375 14.3125 C-61.76032069 19.8550581 -63.70027385 26.52035841 -63.32373047 33.56640625 C-62.14197233 42.45009035 -56.9370606 49.31375137 -51.5 56.125 C-50.06321194 57.96568533 -48.62701981 59.80683599 -47.19140625 61.6484375 C-46.48258301 62.55045898 -45.77375977 63.45248047 -45.04345703 64.38183594 C-42.11836461 68.12958876 -39.27497105 71.93575493 -36.4375 75.75 C-33.24730222 80.01386801 -30.05367501 84.27466254 -26.8125 88.5 C-26.28269531 89.1909375 -25.75289062 89.881875 -25.20703125 90.59375 C-24.80871094 91.0578125 -24.41039062 91.521875 -24 92 C-23.67 92 -23.34 92 -23 92 C-23.07178467 91.41371826 -23.14356934 90.82743652 -23.2175293 90.22338867 C-23.76578492 82.14512292 -20.91873341 77.0930963 -16.8125 70.3125 C-15.5298864 68.11201502 -14.24733584 65.9114933 -12.96484375 63.7109375 C-12.30726074 62.60073242 -11.64967773 61.49052734 -10.97216797 60.34667969 C-7.87022762 55.08282747 -4.87553304 49.75956896 -1.875 44.4375 C-1.07799683 43.03914917 -1.07799683 43.03914917 -0.26489258 41.61254883 C2.65344189 36.47820794 5.41088433 31.30830653 8 26 C6.515 25.505 6.515 25.505 5 25 C4.28271298 23.69320179 3.62484457 22.35343692 3 21 C-3.64018224 11.35023875 -10.70525238 5.1682 -22.2421875 2.46875 C-35.7632307 0.17055569 -47.93672684 4.29305238 -57.375 14.3125 Z M26 14 C25.36723145 15.15278442 25.36723145 15.15278442 24.72167969 16.32885742 C17.30211058 29.83645875 9.86783094 43.33031063 2.18554688 56.69091797 C-2.63335149 65.0773341 -7.32651461 73.53189262 -12 82 C-9.59481455 84.52620107 -7.54315306 85.82968929 -4.3125 87.1875 C-2.875 87.79166667 -1.4375 88.39583333 0 89 C4.10935673 82.570969 7.86069836 75.98305795 11.5625 69.3125 C17.52889825 58.60845051 23.57090517 47.95078154 29.66894531 37.32128906 C31.70010328 33.77905686 33.72502728 30.23327044 35.75 26.6875 C36.83333333 24.79166667 37.91666667 22.89583333 39 21 C36.84545751 18.64283596 34.80280126 17.21033856 31.9375 15.8125 C31.24527344 15.46832031 30.55304688 15.12414062 29.83984375 14.76953125 C28.02486394 13.87137775 28.02486394 13.87137775 26 14 Z M48 25 C46.18755231 27.49669102 46.18755231 27.49669102 44.32421875 30.6953125 C43.97034592 31.28297394 43.61647308 31.87063538 43.25187683 32.47610474 C39.63128149 38.53013883 36.20579546 44.69134622 32.8125 50.875 C31.51248944 53.23089926 30.21185576 55.58644111 28.91015625 57.94140625 C28.58550385 58.52933456 28.26085144 59.11726288 27.92636108 59.7230072 C24.04913724 66.73588198 20.09154512 73.70327995 16.12426758 80.66552734 C15.62435303 81.54547363 15.12443848 82.42541992 14.609375 83.33203125 C14.17592773 84.09233643 13.74248047 84.8526416 13.29589844 85.63598633 C11.78929435 88.38437505 10.40167731 91.19664537 9 94 C12.96 95.98 16.92 97.96 21 100 C28.00023783 88.27379516 34.72740257 76.40749047 41.37890625 64.48046875 C45.52195876 57.05352208 49.71292725 49.65390989 53.91333008 42.25927734 C54.4214624 41.36289551 54.92959473 40.46651367 55.453125 39.54296875 C55.89817383 38.75946045 56.34322266 37.97595215 56.80175781 37.16870117 C57.92443205 35.1367706 58.97869741 33.08441809 60 31 C58.37829621 29.99466333 56.75252763 28.99588093 55.125 28 C54.22007812 27.443125 53.31515625 26.88625 52.3828125 26.3125 C50.16142533 24.83917671 50.16142533 24.83917671 48 25 Z M-23 92 C-22 94 -22 94 -22 94 Z" fill="#1B263B" transform="translate(113,50)"/>
  <style>
    @media (prefers-color-scheme: dark) {
      path { fill: #ffffff; }
    }
  </style>
</svg> 